<?xml version="1.0" standalone="no"?>
<!DOCTYPE svg PUBLIC "-//W3C//DTD SVG 20010904//EN"
 "http://www.w3.org/TR/2001/REC-SVG-20010904/DTD/svg10.dtd">
<svg version="1.0" xmlns="http://www.w3.org/2000/svg"
 width="2133.000000pt" height="2133.000000pt" viewBox="0 0 2133.000000 2133.000000"
 preserveAspectRatio="xMidYMid meet">

<g transform="translate(0.000000,2133.000000) scale(0.100000,-0.100000)"
fill="#673AB7" stroke="none">
<path d="M3600 21310 c-1484 -10 -1637 -17 -1843 -76 -415 -119 -770 -334
-1082 -655 -194 -199 -338 -409 -462 -668 -112 -236 -137 -343 -163 -696 -46
-649 -52 -1980 -39 -10119 l11 -7158 69 -207 c43 -128 96 -260 139 -347 194
-395 498 -739 867 -984 226 -150 386 -223 708 -324 l180 -56 8680 0 8680 0
180 56 c382 120 601 230 875 442 109 85 327 303 412 412 212 274 322 493 442
875 l56 180 0 8680 0 8680 -56 180 c-101 322 -174 482 -324 708 -245 369 -589
673 -984 867 -88 43 -219 96 -348 139 l-207 70 -7373 4 c-4055 3 -7843 2
-8418 -3z m7359 -3875 c287 -41 588 -160 847 -334 361 -243 625 -592 825
-1093 195 -488 751 -1995 1154 -3128 163 -456 1069 -2975 1523 -4230 898
-2483 1070 -2997 1103 -3288 21 -185 -6 -379 -76 -542 -131 -306 -313 -510
-567 -633 -365 -177 -764 -201 -1158 -71 -122 41 -206 84 -310 162 -169 125
-283 270 -394 503 -91 191 -163 388 -376 1029 -232 701 -286 846 -314 854
-102 28 -360 31 -2546 28 -1229 -2 -2298 -6 -2374 -10 l-140 -7 -134 -410
c-399 -1226 -439 -1341 -532 -1526 -59 -116 -101 -180 -182 -277 -178 -209
-417 -351 -698 -414 -137 -30 -413 -33 -553 -5 -214 43 -454 148 -618 272
-213 159 -419 442 -474 651 -22 84 -37 317 -30 469 13 271 28 319 463 1505
520 1418 629 1712 987 2670 211 564 415 1111 453 1215 39 105 284 773 545
1485 918 2503 1155 3131 1363 3617 210 492 347 711 586 938 336 320 741 520
1158 574 108 14 357 12 469 -4z"/>
<path d="M10675 14468 c-27 -59 -327 -964 -666 -2003 -121 -374 -321 -984
-444 -1355 -317 -959 -575 -1773 -575 -1814 0 -22 75 -25 815 -37 684 -11
2356 -5 2510 10 65 6 70 8 73 31 2 14 -33 133 -77 265 -44 132 -136 419 -205
637 -70 219 -169 527 -220 685 -230 700 -661 2054 -990 3108 -63 204 -125 399
-137 435 -35 108 -49 114 -84 38z"/>
</g>
</svg>
