<?xml version="1.0" standalone="no"?>
<!DOCTYPE svg PUBLIC "-//W3C//DTD SVG 20010904//EN"
 "http://www.w3.org/TR/2001/REC-SVG-20010904/DTD/svg10.dtd">
<svg version="1.0" xmlns="http://www.w3.org/2000/svg"
 width="512.000000pt" height="512.000000pt" viewBox="0 0 512.000000 512.000000"
 preserveAspectRatio="xMidYMid meet">

<g transform="translate(0.000000,512.000000) scale(0.100000,-0.100000)"
fill="#673AB7" stroke="none">
<path d="M452 5105 c-171 -37 -325 -162 -399 -322 -56 -121 -54 -17 -51 -2256
l3 -2062 22 -66 c59 -173 206 -318 378 -372 l70 -22 2085 0 2085 0 70 22 c175
55 323 203 378 378 l22 70 0 2085 0 2085 -22 70 c-54 172 -199 319 -372 378
l-66 22 -2070 2 c-1723 1 -2081 -1 -2133 -12z m2258 -939 c140 -48 235 -136
304 -281 27 -57 206 -541 336 -910 16 -44 105 -291 198 -550 377 -1040 392
-1086 392 -1166 0 -53 -6 -77 -31 -127 -43 -87 -108 -134 -214 -157 -83 -17
-191 1 -250 43 -81 57 -110 109 -187 347 -39 121 -76 226 -81 233 -8 9 -138
12 -614 10 l-605 -3 -13 -40 c-7 -22 -38 -117 -69 -212 -63 -198 -84 -243
-135 -296 -146 -154 -426 -107 -529 88 -23 43 -27 63 -27 135 0 82 3 92 89
325 48 132 103 281 121 330 18 50 76 207 130 350 123 328 125 336 288 780 305
832 327 883 421 977 134 133 312 179 476 124z"/>
<path d="M2563 3475 c-6 -11 -48 -135 -93 -275 -45 -140 -135 -415 -200 -610
-64 -195 -115 -358 -113 -362 5 -9 807 -11 816 -2 3 3 2 16 -3 27 -5 12 -27
81 -50 152 -22 72 -63 198 -90 280 -78 242 -125 389 -180 565 -28 91 -57 183
-64 205 -11 36 -14 38 -23 20z"/>
</g>
</svg>
